<svg width="18" height="24" viewBox="0 0 18 24" fill="none" xmlns="http://www.w3.org/2000/svg">
<g clip-path="url(#clip0_89_449)">
<mask id="mask0_89_449" style="mask-type:alpha" maskUnits="userSpaceOnUse" x="5" y="0" width="13" height="24">
<path d="M16.4321 24C16.8605 24 17.2289 23.8237 17.5373 23.4712C17.8458 23.1187 18 22.6879 18 22.1787C18 21.6695 17.8458 21.2583 17.5373 20.9449L9.74908 11.9853L17.5373 3.05508C17.8458 2.70257 18 2.28152 18 1.79192C18 1.30232 17.8458 0.881275 17.5373 0.528765C17.2289 0.176254 16.8605 4.98106e-08 16.4321 6.85365e-08C16.0037 8.72624e-08 15.6353 0.176254 15.3268 0.528765L5.27662 11.9853L15.3268 23.4712C15.6524 23.8237 16.0208 24 16.4321 24Z" fill="white"/>
</mask>
<g mask="url(#mask0_89_449)">
<path d="M16.4321 24C16.8605 24 17.2289 23.8237 17.5373 23.4712C17.8458 23.1187 18 22.6879 18 22.1787C18 21.6695 17.8458 21.2583 17.5373 20.9449L9.74908 11.9853L17.5373 3.05508C17.8458 2.70257 18 2.28152 18 1.79192C18 1.30232 17.8458 0.881275 17.5373 0.528765C17.2289 0.176254 16.8605 4.98106e-08 16.4321 6.85365e-08C16.0037 8.72624e-08 15.6353 0.176254 15.3268 0.528765L5.27662 11.9853L15.3268 23.4712C15.6524 23.8237 16.0208 24 16.4321 24Z" fill="white"/>
</g>
</g>
<rect y="4" width="3" height="16" rx="1.5" fill="white"/>
<defs>
<clipPath id="clip0_89_449">
<rect width="24" height="14" fill="white" transform="matrix(-4.37114e-08 -1 -1 4.37114e-08 18 24)"/>
</clipPath>
</defs>
</svg>
