<svg width="16" height="16" viewBox="0 0 16 16" fill="none" xmlns="http://www.w3.org/2000/svg">
<g clip-path="url(#clip0_462_4077)">
<mask id="mask0_462_4077" style="mask-type:alpha" maskUnits="userSpaceOnUse" x="6" y="2" width="7" height="12">
<path d="M12.216 14C12.4302 14 12.6144 13.9119 12.7687 13.7356C12.9229 13.5594 13 13.3439 13 13.0894C13 12.8348 12.9229 12.6291 12.7687 12.4725L8.87454 7.99266L12.7687 3.52754C12.9229 3.35128 13 3.14076 13 2.89596C13 2.65116 12.9229 2.44064 12.7687 2.26438C12.6144 2.08813 12.4302 2 12.216 2C12.0018 2 11.8176 2.08813 11.6634 2.26438L6.63831 7.99266L11.6634 13.7356C11.8262 13.9119 12.0104 14 12.216 14Z" fill="white"/>
</mask>
<g mask="url(#mask0_462_4077)">
<path d="M12.216 14C12.4302 14 12.6144 13.9119 12.7687 13.7356C12.9229 13.5594 13 13.3439 13 13.0894C13 12.8348 12.9229 12.6291 12.7687 12.4725L8.87454 7.99266L12.7687 3.52754C12.9229 3.35128 13 3.14076 13 2.89596C13 2.65116 12.9229 2.44064 12.7687 2.26438C12.6144 2.08813 12.4302 2 12.216 2C12.0018 2 11.8176 2.08813 11.6634 2.26438L6.63831 7.99266L11.6634 13.7356C11.8262 13.9119 12.0104 14 12.216 14Z" fill="#231F20"/>
</g>
</g>
<rect x="4" y="4" width="1.5" height="8" rx="0.75" fill="#231F20"/>
<defs>
<clipPath id="clip0_462_4077">
<rect width="12" height="7" fill="white" transform="matrix(-4.37114e-08 -1 -1 4.37114e-08 13 14)"/>
</clipPath>
</defs>
</svg>
