<svg width="12" height="8" viewBox="0 0 12 8" fill="none" xmlns="http://www.w3.org/2000/svg">
<mask id="mask0_468_2261" style="mask-type:alpha" maskUnits="userSpaceOnUse" x="0" y="0" width="12" height="8">
<path d="M0 0.895961C0 0.651162 0.0881264 0.440637 0.264382 0.264382C0.440637 0.0881264 0.656058 0 0.910649 0C1.16524 0 1.37087 0.0881264 1.52754 0.264382L6.00734 4.71481L10.4725 0.264382C10.6487 0.0881264 10.8592 0 11.104 0C11.3488 0 11.5594 0.0881264 11.7356 0.264382C11.9119 0.440637 12 0.651162 12 0.895961C12 1.14076 11.9119 1.35128 11.7356 1.52754L6.00734 7.2705L0.264382 1.52754C0.0881264 1.34149 0 1.13097 0 0.895961Z" fill="white"/>
</mask>
<g mask="url(#mask0_468_2261)">
<path d="M0 0.895961C0 0.651162 0.0881264 0.440637 0.264382 0.264382C0.440637 0.0881264 0.656058 0 0.910649 0C1.16524 0 1.37087 0.0881264 1.52754 0.264382L6.00734 4.71481L10.4725 0.264382C10.6487 0.0881264 10.8592 0 11.104 0C11.3488 0 11.5594 0.0881264 11.7356 0.264382C11.9119 0.440637 12 0.651162 12 0.895961C12 1.14076 11.9119 1.35128 11.7356 1.52754L6.00734 7.2705L0.264382 1.52754C0.0881264 1.34149 0 1.13097 0 0.895961Z" fill="#FB6E00"/>
</g>
</svg>
