<svg width="24" height="24" viewBox="0 0 24 24" fill="none" xmlns="http://www.w3.org/2000/svg">
<g opacity="0.32">
<path d="M12.0004 2.3999C6.69883 2.3999 2.40039 6.69834 2.40039 11.9999C2.40039 16.4983 5.49727 20.2624 9.67383 21.3046C9.62852 21.1749 9.60039 21.0233 9.60039 20.8374V19.1968C9.21133 19.1968 8.5582 19.1968 8.39414 19.1968C7.73789 19.1968 7.15352 18.914 6.8707 18.389C6.55508 17.8062 6.50195 16.914 5.72227 16.3687C5.49102 16.1874 5.66602 15.9796 5.9332 16.0077C6.42539 16.1468 6.8332 16.4843 7.21758 16.9858C7.59883 17.4874 7.78008 17.6015 8.49414 17.6015C8.84102 17.6015 9.3582 17.5812 9.84727 17.5046C10.1098 16.8374 10.5629 16.2233 11.1176 15.9343C7.9207 15.6062 6.39414 14.0155 6.39414 11.8562C6.39414 10.9265 6.79102 10.0265 7.46289 9.27021C7.24258 8.51709 6.96445 6.98428 7.54883 6.3999C8.98633 6.3999 9.85664 7.33271 10.0645 7.58428C10.7816 7.33896 11.5691 7.1999 12.3957 7.1999C13.2254 7.1999 14.016 7.33896 14.7348 7.58584C14.941 7.33584 15.8113 6.3999 17.252 6.3999C17.8379 6.98428 17.5566 8.5249 17.3348 9.2749C18.0035 10.0312 18.3957 10.928 18.3957 11.8562C18.3957 14.014 16.8738 15.603 13.6816 15.9343C14.5598 16.3921 15.2004 17.6796 15.2004 18.6499V20.8374C15.2004 20.9202 15.1816 20.9812 15.1723 21.0515C18.9129 19.7405 21.6004 16.189 21.6004 11.9999C21.6004 6.69834 17.302 2.3999 12.0004 2.3999Z" fill="white"/>
</g>
</svg>
